<?xml version="1.0" encoding="UTF-8"?>
<svg xmlns="http://www.w3.org/2000/svg" xmlns:bx="https://boxy-svg.com" viewBox="0 0 82.047 42" width="82.047" height="42">
  <defs>
    <style type="text/css">
	.st0{fill:#1A4086;}
	.st1{fill:#DB0942;}
</style>
  </defs>
  <path class="st0" d="M 47.118 14.98 L 45.446 19.849 C 45.193 20.577 44.432 22.838 43.029 22.838 C 42.732 22.838 42.391 22.728 42.285 22.36 C 42.257 22.268 42.257 22.113 42.391 22.141 C 42.527 22.168 42.744 22.197 42.92 22.197 C 43.697 22.197 44.049 21.784 44.237 21.512 C 44.524 21.087 44.716 20.43 44.711 19.78 C 44.697 19.262 44.511 18.712 44.325 18.084 L 43.643 16.092 C 43.509 15.673 43.315 15.204 43.062 15.052 L 44.117 14.933 L 45.354 18.726 C 45.354 18.726 45.895 17.191 46.155 16.219 C 46.249 15.891 46.288 15.645 46.262 15.393 C 46.249 15.222 46.194 15.107 46.13 15.022 L 47.118 14.98" style="" bx:origin="-8.718823 -1.8893"></path>
  <path class="st0" d="M 75.994 22.197 C 76.761 22.197 77.55 21.784 77.55 20.878 C 77.55 20.206 77.035 19.92 76.533 19.807 C 76.167 19.733 75.838 19.662 75.746 19.635 C 75.612 19.677 74.523 20.165 74.523 21.028 C 74.523 21.841 75.378 22.197 75.994 22.197 M 76.815 16.316 C 76.815 15.701 76.547 15.14 76.012 15.14 C 75.472 15.14 75.257 15.632 75.257 16.176 C 75.257 16.812 75.526 17.368 76.126 17.368 C 76.614 17.357 76.815 16.863 76.815 16.316 M 78.151 14.974 L 78.151 15.332 L 77.378 15.332 C 77.577 15.519 77.671 15.833 77.651 16.123 C 77.633 16.917 77.208 17.314 76.366 17.685 C 76.033 17.839 75.705 17.971 75.418 18.138 C 75.243 18.238 75.158 18.314 75.169 18.467 C 75.169 18.58 75.243 18.663 75.418 18.741 C 75.854 18.935 76.719 19.033 77.443 19.32 C 78.084 19.578 78.393 19.989 78.393 20.577 C 78.393 21.742 76.427 22.812 75.455 22.812 C 74.443 22.812 73.706 22.371 73.706 21.456 C 73.706 20.277 75.285 19.536 75.285 19.536 C 74.996 19.467 74.287 19.333 74.314 18.712 C 74.355 18.071 75.591 17.755 75.591 17.755 C 75.537 17.741 75.39 17.712 75.295 17.671 C 74.682 17.412 74.4 16.917 74.414 16.359 C 74.427 15.274 75.285 14.849 76.112 14.849 C 76.338 14.849 76.533 14.892 76.708 14.933 C 76.862 14.974 77.048 14.98 77.14 14.98 L 78.151 14.974 Z" style="" bx:origin="-15.72966 -1.865091"></path>
  <path class="st0" d="M 60.402 14.237 L 60.354 14.237 C 60.102 13.739 59.746 13.271 58.686 13.271 C 57.073 13.271 56.46 14.639 56.46 16.161 C 56.46 17.839 57.261 19.138 58.946 19.138 C 59.828 19.138 60.402 18.741 60.696 18.397 L 60.696 18.467 C 60.696 18.948 59.968 19.947 58.378 19.947 C 56.511 19.947 55.379 18.522 55.379 16.451 C 55.379 14.368 56.664 12.789 58.698 12.789 C 59.285 12.789 59.787 12.887 60.402 12.873 L 60.402 14.237" style="" bx:origin="-10.416982 -1.786298"></path>
  <path class="st0" d="M 72.05 16.428 C 72.551 16.428 72.822 16.399 72.822 16.002 C 72.822 15.603 72.551 15.191 72.05 15.191 C 71.406 15.191 71.138 15.862 71.039 16.443 L 72.05 16.443 M 70.972 16.742 C 70.958 16.917 70.931 17.072 70.931 17.284 C 70.931 18.279 71.34 19.237 72.387 19.237 C 72.891 19.237 73.38 19.018 73.624 18.726 L 73.624 18.837 C 73.584 19.409 73.01 19.92 72.103 19.92 C 70.659 19.92 70.021 18.669 70.021 17.384 C 70.021 16.002 70.77 14.836 72.179 14.836 C 73.165 14.836 73.745 15.534 73.745 16.231 C 73.745 16.673 73.524 16.742 72.891 16.742 L 70.972 16.742 Z" style="" bx:origin="-18.795873 -2.918254"></path>
  <path class="st0" d="M 80.353 16.428 C 80.852 16.428 81.114 16.399 81.114 15.987 C 81.114 15.589 80.838 15.178 80.339 15.178 C 79.696 15.178 79.427 15.847 79.327 16.428 L 80.353 16.428 M 79.275 16.742 C 79.261 16.917 79.233 17.072 79.233 17.284 C 79.233 18.279 79.655 19.237 80.695 19.237 C 81.195 19.237 81.695 19.018 81.929 18.726 L 81.929 18.851 C 81.89 19.424 81.298 19.933 80.392 19.933 C 78.94 19.933 78.314 18.683 78.314 17.384 C 78.314 16.002 79.061 14.836 80.473 14.836 C 81.453 14.836 82.036 15.534 82.036 16.219 C 82.036 16.658 81.808 16.727 81.195 16.727 L 79.275 16.742 Z" style="" bx:origin="-21.032585 -2.910411"></path>
  <path class="st0" d="M 40.922 19.551 C 41.876 19.551 42.133 18.551 42.133 17.659 C 42.133 16.413 41.777 15.232 40.678 15.232 C 39.726 15.232 39.47 16.231 39.47 17.125 C 39.47 18.355 39.825 19.551 40.922 19.551 M 40.574 19.933 C 39.168 19.933 38.575 18.726 38.575 17.56 C 38.575 15.903 39.47 14.836 41.008 14.836 C 42.418 14.836 42.999 16.044 42.999 17.191 C 43.013 18.866 42.117 19.933 40.574 19.933" style="" bx:origin="-8.715005 -2.910411"></path>
  <path class="st0" d="M 56.731 30.438 L 56.731 29.42 L 56.771 29.42 C 57.013 29.971 57.406 30.285 58.036 30.271 C 58.617 30.271 58.972 29.941 58.972 29.37 C 58.972 28.706 58.43 28.476 57.929 28.161 C 57.435 27.861 56.961 27.611 56.945 26.828 C 56.945 25.981 57.533 25.571 58.497 25.571 C 58.796 25.571 59.26 25.613 59.559 25.703 L 59.559 26.512 L 59.527 26.512 C 59.299 26.038 58.932 25.898 58.46 25.898 C 58.061 25.898 57.694 26.115 57.694 26.555 C 57.682 27.136 58.155 27.352 58.631 27.622 C 59.204 27.951 59.761 28.308 59.761 29.131 C 59.761 30.146 58.918 30.641 58.036 30.654 C 57.521 30.654 57.1 30.557 56.731 30.438" style="" bx:origin="-18.72122 -5.030727"></path>
  <path class="st0" d="M 63.498 26.367 C 63.618 26.198 64.066 25.585 64.869 25.585 C 65.63 25.585 66.13 25.981 66.13 26.968 L 66.13 29.356 C 66.13 29.802 66.152 30.243 66.339 30.503 L 65.336 30.503 L 65.336 27.581 C 65.336 26.899 65.275 26.157 64.451 26.157 C 63.676 26.157 63.525 26.911 63.525 27.639 L 63.525 29.37 C 63.525 29.817 63.536 30.243 63.703 30.515 L 62.521 30.515 C 62.71 30.243 62.727 29.802 62.727 29.37 L 62.727 26.828 C 62.727 26.395 62.684 25.981 62.468 25.759 L 63.511 25.627 L 63.511 26.367" style="" bx:origin="-16.13593 -5.189143"></path>
  <path class="st0" d="M 49.919 19.193 C 49.705 19.564 49.353 19.92 48.643 19.947 C 47.948 19.974 47.366 19.578 47.366 18.766 C 47.366 17.755 48.523 17.368 49.218 17.072 C 49.827 16.797 49.932 16.714 49.932 16.123 C 49.932 15.589 49.746 15.191 49.144 15.191 C 48.629 15.191 48.469 15.477 48.395 15.75 C 48.314 16.002 48.22 16.219 47.906 16.219 C 47.679 16.219 47.525 16.077 47.525 15.82 C 47.525 15.095 48.534 14.877 49.325 14.877 C 50.053 14.877 50.722 15.052 50.722 15.736 L 50.722 18.649 C 50.722 19.094 50.735 19.536 50.917 19.795 L 50 19.795 C 49.946 19.662 49.919 19.345 49.919 19.193 M 49.025 19.362 C 49.631 19.362 49.932 18.866 49.932 18.179 L 49.932 17.101 L 49.39 17.384 C 48.629 17.782 48.247 18.011 48.247 18.607 C 48.247 19.111 48.563 19.362 49.025 19.362" style="" bx:origin="-13.33939 -2.932771"></path>
  <path class="st0" d="M 52.68 18.634 C 52.68 19.068 52.694 19.508 52.867 19.78 L 51.685 19.78 C 51.863 19.508 51.878 19.068 51.878 18.634 L 51.878 13.544 C 51.878 13.109 51.837 12.698 51.632 12.489 L 52.68 12.327 L 52.68 18.634" style="" bx:origin="-41.759175 -1.653922"></path>
  <path class="st0" d="M 40.328 26.087 L 39.249 26.087 L 39.249 29.356 C 39.249 29.802 39.261 30.229 39.431 30.503 L 38.247 30.503 C 38.433 30.229 38.433 29.789 38.433 29.356 L 38.433 26.087 L 37.947 26.087 L 37.947 25.703 L 38.433 25.703 L 38.433 24.322 C 38.474 23.292 39.249 23.079 40.105 23.09 C 40.341 23.09 40.829 23.195 40.829 23.523 C 40.829 23.733 40.678 23.866 40.511 23.88 C 40.179 23.894 39.987 23.419 39.684 23.419 C 39.249 23.419 39.222 23.92 39.222 24.565 L 39.222 25.703 L 40.299 25.703 L 40.299 26.087" style="" bx:origin="-13.160144 -3.114927"></path>
  <path class="st0" d="M 55.076 26.282 L 55.008 25.613 L 54.012 25.759 C 54.258 25.97 54.312 26.395 54.312 26.828 L 54.312 29.37 C 54.312 29.817 54.298 30.257 54.117 30.515 L 55.301 30.515 C 55.114 30.243 55.114 29.802 55.114 29.37 L 55.114 26.996 C 55.114 26.626 55.247 26.228 55.791 26.339 C 55.968 26.367 56.197 26.437 56.417 26.395 C 56.619 26.353 56.692 26.216 56.692 26.012 C 56.692 25.813 56.539 25.613 56.197 25.613 C 55.737 25.599 55.341 25.872 55.076 26.282" style="" bx:origin="-20.150339 -5.224096"></path>
  <path class="st0" d="M 52.312 29.926 C 52.327 30.187 52.34 30.41 52.367 30.515 L 53.276 30.515 C 53.089 30.243 53.089 29.802 53.089 29.37 L 53.089 25.613 L 52.039 25.759 C 52.247 25.981 52.286 26.395 52.286 26.828 L 52.286 28.407 C 52.286 29.463 52.064 30.053 51.363 30.094 C 50.681 30.146 50.473 29.684 50.473 28.944 L 50.473 25.599 L 49.417 25.745 C 49.631 25.97 49.665 26.38 49.665 26.814 L 49.665 29.162 C 49.665 30.053 50.041 30.67 50.957 30.67 C 51.685 30.67 52.166 30.158 52.312 29.926" style="" bx:origin="-12.81219 -5.046822"></path>
  <path class="st0" d="M 35.104 16.077 C 34.97 16.077 34.837 16.077 34.699 16.058 L 34.699 13.328 L 35.143 13.328 C 36.06 13.328 36.588 13.454 36.588 14.52 C 36.588 15.534 36.101 16.077 35.104 16.077 M 37.865 18.766 L 36.101 16.247 C 36.97 15.917 37.592 15.289 37.592 14.298 C 37.592 13.412 36.877 12.901 35.721 12.901 C 34.916 12.901 34.383 12.999 33.513 12.97 C 33.735 13.298 33.735 13.85 33.735 14.326 L 33.735 18.438 C 33.735 18.921 33.735 19.451 33.513 19.78 L 34.942 19.78 C 34.723 19.437 34.712 18.921 34.712 18.438 L 34.712 16.49 C 35.091 16.533 35.197 16.658 35.472 17.03 L 36.997 19.237 C 37.225 19.578 37.418 19.78 37.852 19.78 L 38.775 19.78 C 38.489 19.578 38.155 19.193 37.865 18.766" style="" bx:origin="-6.369797 -1.875199"></path>
  <path class="st0" d="M 48.483 26.065 C 48.483 25.132 48.483 24.279 48.797 23.718 L 47.63 23.718 C 47.948 24.279 47.948 25.143 47.948 26.073 L 47.948 29.012 C 47.948 29.012 44.67 24.187 44.457 23.88 C 44.337 23.718 44.25 23.718 44.049 23.718 L 42.987 23.718 C 43.285 24.035 43.315 24.605 43.315 25.132 L 43.315 28.161 C 43.315 29.091 43.315 29.941 42.999 30.515 L 44.169 30.515 C 43.856 29.941 43.856 29.104 43.856 28.161 L 43.856 24.802 L 47.76 30.515 L 48.508 30.515 C 48.495 30.201 48.495 29.926 48.495 29.574 L 48.483 26.065" style="" bx:origin="-7.398338 -3.489854"></path>
  <path class="st0" d="M 63.378 19.564 C 64.34 19.564 64.587 18.564 64.587 17.671 C 64.587 16.428 64.233 15.232 63.143 15.232 C 62.18 15.232 61.933 16.231 61.933 17.125 C 61.946 18.369 62.303 19.564 63.378 19.564 M 63.05 19.947 C 61.637 19.947 61.063 18.726 61.063 17.56 C 61.063 15.917 61.96 14.849 63.498 14.849 C 64.901 14.849 65.484 16.058 65.484 17.201 C 65.484 18.866 64.573 19.947 63.05 19.947" style="" bx:origin="-13.811275 -2.913097"></path>
  <path class="st0" d="M 69.179 18.634 C 69.179 19.082 69.195 19.508 69.366 19.78 L 68.176 19.78 C 68.353 19.508 68.362 19.068 68.38 18.634 L 68.38 13.558 C 68.38 13.125 68.336 12.712 68.132 12.489 L 69.167 12.327 L 69.179 18.634" style="" bx:origin="-55.104262 -1.653922"></path>
  <path class="st0" d="M 67.131 18.634 C 67.131 19.082 67.14 19.508 67.328 19.78 L 66.137 19.78 C 66.326 19.508 66.339 19.082 66.339 18.634 L 66.339 13.558 C 66.339 13.125 66.297 12.712 66.091 12.504 L 67.14 12.341 L 67.14 18.634" style="" bx:origin="-53.455489 -1.659136"></path>
  <path class="st0" d="M 35.353 30.216 C 36.312 30.216 36.561 29.216 36.561 28.323 C 36.561 27.078 36.21 25.888 35.119 25.888 C 34.157 25.888 33.91 26.885 33.91 27.779 C 33.91 29.026 34.275 30.216 35.353 30.216 M 35.009 30.599 C 33.601 30.599 33.026 29.37 33.026 28.216 C 33.026 26.555 33.921 25.5 35.446 25.5 C 36.857 25.5 37.43 26.707 37.43 27.875 C 37.43 29.517 36.55 30.599 35.009 30.599" style="" bx:origin="-7.498816 -5.000537"></path>
  <path class="st0" d="M 68.637 32.916 C 69.405 32.916 70.196 32.505 70.196 31.605 C 70.196 30.928 69.682 30.641 69.179 30.53 C 68.812 30.452 68.484 30.384 68.392 30.369 C 68.258 30.41 67.168 30.897 67.168 31.767 C 67.168 32.562 68.022 32.916 68.637 32.916 M 69.453 27.052 C 69.453 26.437 69.195 25.872 68.649 25.872 C 68.116 25.872 67.903 26.38 67.903 26.899 C 67.903 27.529 68.176 28.092 68.774 28.092 C 69.248 28.092 69.453 27.595 69.453 27.052 M 70.795 25.703 L 70.795 26.065 L 70.021 26.065 C 70.223 26.255 70.309 26.568 70.295 26.858 C 70.27 27.652 69.85 28.05 69.007 28.42 C 68.679 28.561 68.353 28.706 68.062 28.86 C 67.889 28.958 67.798 29.048 67.812 29.189 C 67.812 29.3 67.889 29.383 68.062 29.448 C 68.498 29.643 69.355 29.744 70.088 30.025 C 70.73 30.285 71.039 30.697 71.039 31.284 C 71.039 32.45 69.073 33.518 68.103 33.518 C 67.089 33.518 66.352 33.093 66.352 32.165 C 66.352 30.981 67.929 30.243 67.929 30.243 C 67.643 30.173 66.92 30.041 66.962 29.42 C 66.995 28.776 68.217 28.462 68.217 28.462 C 68.169 28.449 68.022 28.42 67.929 28.378 C 67.314 28.134 67.035 27.622 67.049 27.066 C 67.061 25.997 67.915 25.556 68.745 25.571 C 68.974 25.571 69.153 25.613 69.339 25.654 C 69.494 25.697 69.682 25.703 69.777 25.703 L 70.795 25.703 Z" style="" bx:origin="-14.157415 -3.217328"></path>
  <path class="st1" d="M 17.421 30.369 L 10.275 16.044 C 9.854 15.191 10.043 14.237 10.817 13.808 C 11.608 13.382 12.421 13.739 12.857 14.55 L 14.975 18.591 C 15.524 19.651 16.567 20.046 17.577 19.479 C 18.591 18.921 18.752 17.741 18.222 16.714 L 16.881 13.983 L 16.894 2.731 C 16.894 1.935 17.421 1.29 18.117 1.29 C 18.813 1.29 19.393 1.935 19.393 2.716 L 19.382 14.627 C 19.382 14.766 19.474 14.877 19.593 14.877 C 19.708 14.877 19.815 14.766 19.815 14.627 L 19.829 1.439 C 19.829 0.643 20.369 0 21.065 0 C 21.761 0 22.367 0.643 22.367 1.425 L 22.36 14.611 C 22.36 14.751 22.449 14.863 22.575 14.863 C 22.697 14.863 22.804 14.751 22.804 14.611 L 22.819 3.129 C 22.819 2.332 23.354 1.697 24.052 1.697 C 24.75 1.697 25.331 2.345 25.331 3.135 L 25.315 14.611 C 25.315 14.751 25.404 14.863 25.538 14.863 C 25.672 14.863 25.752 14.751 25.752 14.611 L 25.766 5.309 C 25.766 4.512 26.313 3.87 27.01 3.87 C 27.71 3.87 28.299 4.512 28.299 5.294 L 28.273 30.355 L 17.421 30.369" style="" bx:origin="-0.551205 0"></path>
  <path class="st0" d="M 11.418 19.041 L 10.056 16.288 C 9.539 15.247 9.701 14.053 10.752 13.48 C 11.739 12.942 12.775 13.423 13.335 14.438 L 15.449 18.482 C 15.891 19.293 16.705 19.62 17.491 19.193 C 18.265 18.766 18.417 17.81 18.01 16.988 L 10.831 2.605 L 0.026 2.59 L 0 27.639 C 0 28.434 0.567 29.063 1.265 29.063 C 1.959 29.063 2.511 28.42 2.511 27.622 L 2.511 18.314 C 2.511 18.179 2.607 18.071 2.735 18.071 C 2.855 18.071 2.949 18.179 2.963 18.314 L 2.949 29.789 C 2.949 30.585 3.523 31.233 4.226 31.233 C 4.921 31.233 5.46 30.599 5.46 29.802 L 5.476 18.314 C 5.476 18.179 5.575 18.071 5.695 18.071 C 5.817 18.071 5.91 18.179 5.91 18.314 L 5.897 31.506 C 5.897 32.305 6.486 32.933 7.188 32.933 C 7.883 32.933 8.421 32.288 8.421 31.506 L 8.437 18.314 C 8.437 18.179 8.538 18.071 8.659 18.071 C 8.779 18.071 8.879 18.179 8.879 18.314 L 8.865 30.229 C 8.865 31.025 9.462 31.654 10.154 31.654 C 10.857 31.654 11.418 31.011 11.418 30.216 L 11.418 19.041" style="" bx:origin="0 -0.085406"></path>
  <path class="st0" d="M 61.471 29.37 C 61.471 29.802 61.487 30.257 61.664 30.515 L 60.481 30.515 C 60.669 30.243 60.684 29.802 60.684 29.37 L 60.684 26.828 C 60.684 26.395 60.644 25.981 60.428 25.759 L 61.487 25.613 L 61.487 29.37" style="" bx:origin="-48.950774 -5.224892"></path>
  <path class="st0" d="M 60.51 24.104 C 60.51 23.788 60.751 23.539 61.048 23.539 C 61.352 23.539 61.592 23.788 61.592 24.104 C 61.592 24.418 61.352 24.663 61.048 24.663 C 60.756 24.663 60.51 24.418 60.51 24.104" style="" bx:origin="-55.881873 -20.934997"></path>
  <path d="M 1.817 38.143 L 2.296 38.143 C 2.881 38.143 3.625 38.121 3.625 37.408 C 3.625 36.821 2.991 36.714 2.296 36.714 L 1.817 36.714 Z M 0 35.517 L 3.244 35.517 C 4.454 35.517 5.441 36.023 5.441 37.109 C 5.441 37.95 5.012 38.513 4.133 38.702 L 4.133 38.72 C 4.72 38.866 4.758 39.345 5.101 40.113 L 5.765 41.833 L 3.869 41.833 L 3.478 40.692 C 3.106 39.607 2.872 39.334 2.198 39.334 L 1.817 39.334 L 1.817 41.833 L 0 41.833 L 0 35.517" style="fill: rgb(27, 69, 142); fill-opacity: 1; fill-rule: nonzero; stroke: none;" id="path16"></path>
  <path d="M 12.25 41.687 C 11.734 41.807 11.157 41.941 10.227 41.941 C 8.412 41.941 6.311 41.091 6.311 38.702 C 6.311 36.505 7.972 35.409 10.22 35.409 C 10.913 35.409 11.586 35.555 12.242 35.734 L 12.094 37.103 C 11.509 36.803 10.941 36.658 10.315 36.658 C 9.026 36.658 8.186 37.527 8.186 38.702 C 8.186 39.943 9.135 40.692 10.463 40.692 C 11.06 40.692 11.664 40.549 12.163 40.367 L 12.25 41.687" style="fill: rgb(27, 69, 142); fill-opacity: 1; fill-rule: nonzero; stroke: none;" id="path18"></path>
  <path d="M 13.11 35.517 L 15.426 35.517 L 17.732 39.806 L 17.75 39.806 L 17.721 35.517 L 19.383 35.517 L 19.383 41.833 L 17.125 41.833 L 14.742 37.518 L 14.722 37.518 L 14.781 41.833 L 13.11 41.833 L 13.11 35.517" style="fill: rgb(27, 69, 142); fill-opacity: 1; fill-rule: nonzero; stroke: none;" id="path20"></path>
  <path d="M 24.859 36.73 L 24.838 36.73 L 23.934 39.273 L 25.693 39.273 Z M 23.712 35.389 L 26.005 35.389 L 28.709 41.887 L 26.658 41.887 L 26.135 40.501 L 23.501 40.501 L 22.95 41.887 L 21.049 41.887 L 23.712 35.389" style="fill: rgb(224, 16, 73); fill-opacity: 1; fill-rule: nonzero; stroke: none;" id="path22"></path>
  <path d="M 34.64 41.739 C 34.107 41.86 33.513 42 32.559 42 C 30.689 42 28.527 41.124 28.527 38.666 C 28.527 36.405 30.237 35.278 32.548 35.278 C 33.262 35.278 33.956 35.427 34.63 35.613 L 34.479 37.021 C 33.875 36.713 33.292 36.562 32.649 36.562 C 31.322 36.562 30.458 37.456 30.458 38.666 C 30.458 39.943 31.435 40.717 32.8 40.717 C 33.413 40.717 34.037 40.566 34.548 40.381 L 34.64 41.739" style="fill: rgb(224, 16, 73); fill-opacity: 1; fill-rule: nonzero; stroke: none;" id="path24"></path>
  <path d="M 41.094 41.739 C 40.56 41.86 39.968 42 39.015 42 C 37.143 42 34.981 41.124 34.981 38.666 C 34.981 36.405 36.689 35.278 39.003 35.278 C 39.715 35.278 40.41 35.427 41.084 35.613 L 40.932 37.021 C 40.329 36.713 39.747 36.562 39.103 36.562 C 37.777 36.562 36.911 37.456 36.911 38.666 C 36.911 39.943 37.886 40.717 39.253 40.717 C 39.867 40.717 40.492 40.566 41.003 40.381 L 41.094 41.739" style="fill: rgb(224, 16, 73); fill-opacity: 1; fill-rule: nonzero; stroke: none;" id="path26"></path>
  <path d="M 43.518 38.089 L 44.008 38.089 C 44.612 38.089 45.377 38.072 45.377 37.336 C 45.377 36.73 44.722 36.618 44.008 36.618 L 43.518 36.618 Z M 41.644 35.389 L 44.983 35.389 C 46.23 35.389 47.244 35.911 47.244 37.029 C 47.244 37.895 46.804 38.472 45.898 38.666 L 45.898 38.687 C 46.502 38.834 46.541 39.33 46.893 40.12 L 47.577 41.887 L 45.628 41.887 L 45.225 40.717 C 44.842 39.598 44.601 39.319 43.909 39.319 L 43.518 39.319 L 43.518 41.887 L 41.644 41.887 L 41.644 35.389" style="fill: rgb(224, 16, 73); fill-opacity: 1; fill-rule: nonzero; stroke: none;" id="path28"></path>
  <path d="M 48.101 35.389 L 53.045 35.389 L 53.045 36.618 L 49.969 36.618 L 49.969 37.96 L 52.876 37.96 L 52.876 39.189 L 49.969 39.189 L 49.969 40.658 L 53.156 40.658 L 53.156 41.887 L 48.101 41.887 L 48.101 35.389" style="fill: rgb(224, 16, 73); fill-opacity: 1; fill-rule: nonzero; stroke: none;" id="path30"></path>
  <path d="M 55.711 40.603 L 56.432 40.603 C 57.831 40.603 58.614 39.932 58.614 38.639 C 58.614 37.346 57.804 36.675 56.432 36.675 L 55.711 36.675 Z M 53.839 35.389 L 56.393 35.389 C 58.836 35.389 60.545 36.099 60.545 38.612 C 60.545 41.041 58.787 41.887 56.393 41.887 L 53.839 41.887 L 53.839 35.389" style="fill: rgb(224, 16, 73); fill-opacity: 1; fill-rule: nonzero; stroke: none;" id="path32"></path>
  <path d="M 61.098 35.389 L 62.968 35.389 L 62.968 41.887 L 61.098 41.887 L 61.098 35.389" style="fill: rgb(224, 16, 73); fill-opacity: 1; fill-rule: nonzero; stroke: none;" id="path34"></path>
  <path d="M 65.321 36.675 L 63.591 36.675 L 63.591 35.389 L 68.919 35.389 L 68.919 36.675 L 67.19 36.675 L 67.19 41.887 L 65.321 41.887 L 65.321 36.675" style="fill: rgb(224, 16, 73); fill-opacity: 1; fill-rule: nonzero; stroke: none;" id="path36"></path>
  <path d="M 69.4 35.389 L 74.348 35.389 L 74.348 36.618 L 71.272 36.618 L 71.272 37.96 L 74.175 37.96 L 74.175 39.189 L 71.272 39.189 L 71.272 40.658 L 74.459 40.658 L 74.459 41.887 L 69.4 41.887 L 69.4 35.389" style="fill: rgb(224, 16, 73); fill-opacity: 1; fill-rule: nonzero; stroke: none;" id="path38"></path>
  <path d="M 77.212 40.603 L 77.936 40.603 C 79.333 40.603 80.119 39.932 80.119 38.639 C 80.119 37.346 79.303 36.675 77.936 36.675 L 77.212 36.675 Z M 75.343 35.389 L 77.895 35.389 C 80.338 35.389 82.047 36.099 82.047 38.612 C 82.047 41.041 80.286 41.887 77.895 41.887 L 75.343 41.887 L 75.343 35.389" style="fill: rgb(224, 16, 73); fill-opacity: 1; fill-rule: nonzero; stroke: none;" id="path40"></path>
</svg>
