<?xml version="1.0" encoding="UTF-8"?>
<svg xmlns="http://www.w3.org/2000/svg" id="Layer_1" data-name="Layer 1" viewBox="0 0 29.52 44.77">
  <defs>
    <style>
      .cls-1 {
        fill: #1c3d72;
        fill-rule: evenodd;
      }
    </style>
  </defs>
  <path class="cls-1" d="M26.31,30.81c-.04,.35-.08,.6-.21,.87-.11,.23-.33,.34-.34,.61-.01,.37,.4,.61,.4,1.01,0,.19-.12,.36-.11,.55,0,.14,.08,.3,.18,.43,.26,.38,.68,.65,.8,1.21,.11,.49,.13,1.38-.05,1.83-.05,.13-.16,.26-.24,.37-.21,.28-.41,.59-.68,.82-.05,.05-.12,.06-.16,.13-.04,1.16,.13,2.18,.5,2.99,.16,.36,.41,.76,.42,1.34,0,.26-.02,.55-.06,.82-.03,.2-.08,.54-.21,.66-.09,.08-.35,.13-.53,.18-1.23,.29-2.57,.07-3.57-.29-.32-.12-.57-.18-.64-.5-.04-.16-.03-.39-.03-.58,0-.18,.02-.39,.06-.53,.04-.15,.16-.27,.19-.39,.1-.32,.08-.79,.08-1.19,0-1.2-.26-2.41-.19-3.57-.52-.24-.85-.63-.92-1.32,0-.07,0-.17-.02-.24-.03-.08-.17-.15-.24-.21-.19-.16-.56-.49-.53-.87,.01-.18,.14-.34,.24-.52,.24-.4,.47-.77,.64-1.26,.03-.09,.08-.23,.08-.29,0-.07-.09-.16-.15-.26-.36-.6-.68-1.16-.95-1.84-2.7,.13-5.32-.09-7.25-.85-.16,.3-.25,.66-.42,.95,1.19,1.38,2.47,2.66,3.51,4.19,.13-.07,.21-.13,.35-.11,.26,.04,.36,.33,.5,.55,.35,.55,.69,1.02,.92,1.69,.05,.13,.05,.28,.1,.42,.03,.1,.14,.2,.21,.32,.06,.1,.14,.21,.18,.34,.05,.15,.11,.4,.05,.58-.03,.11-.06,.09-.14,.16-.36,.3-.81,.58-1.22,.81-.53,.29-1.08,.48-1.63,.69-.96,.38-1.88,.82-2.67,1.4-.12,.09-.25,.24-.37,.27-.76,.2-1.73,.36-2.69,.32-.97-.03-1.88-.19-2.61-.4-.08-.52,.02-.9,.23-1.19,.18-.25,.36-.51,.77-.53,.14,0,.29,.03,.43,.03,.13,0,.28-.01,.42-.03,.22-.03,.5-.09,.68-.23,.12-.09,.21-.25,.31-.35,.32-.35,.56-.66,1.06-.87-.39,0-.42-.19-.5-.55-.03-.15-.06-.31-.1-.42-.08-.24-.18-.55-.39-.64-.08-.04-.24-.03-.34-.06-.35-.1-.63-.37-.9-.66-.23-.25-.44-.52-.63-.77-.2-.26-.44-.5-.64-.76-.22-.26-.43-.52-.63-.77-.84-1.04-1.61-2.18-2.38-3.2-.78-1.03-1.61-2.17-2.48-3.11-.23-.25-.48-.44-.72-.68-.46-.44-.72-1.15-.92-1.88-.1-.36-.19-.8-.15-1.21,.04-.31,.25-.64,.4-.9,.17-.28,.35-.55,.53-.77,.4-.49,.92-.91,1.61-1-.02-.11-.11-.19-.16-.29-.05-.1-.07-.22-.13-.34-.1-.19-.29-.32-.37-.52-.08-.19-.08-.41-.1-.66-.04-.7-.33-1.22-.42-1.85-.12-.91-.03-1.91,.14-2.79,.18-.9,.33-1.83,.18-2.72-.04-.24-.06-.46-.06-.69,0-.23-.05-.44-.1-.66-.08-.4-.17-.79-.32-1.18-.11-.28-.31-.63-.05-.89-.25-.3-.12-.74-.08-1.19,.02-.24-.03-.47,.03-.68-.39-.8-.44-1.74-.23-2.61,.2-.82,.58-1.54,.95-2.14,.21-.33,.4-.62,.66-.89C3.26,.73,4.34,.08,5.73,0c.8-.04,1.55,.13,2.17,.37,.91,.34,1.71,.85,2.22,1.59,.17,.24,.29,.53,.45,.82,.21,.38,.44,.82,.69,1.21,.14,.22,.37,.34,.23,.66,.19,.2,.29,.56,.76,.5,.47-.06,.64-.46,1.01-.64,.24-.12,.56-.15,.89-.02,.09,.04,.13,.07,.19,.11,.2,.13,.57,.2,.87,.27,.23,.05,.46,.12,.68,.16,.49,.1,.96,.14,1.42,.26,1.38,.35,2.37,.93,3.3,1.74,.3,.26,.59,.53,.87,.8,.57,.56,1.12,1.1,1.63,1.72,.5,.61,.91,1.33,1.34,2.03,.22,.35,.44,.69,.61,1.06,.18,.38,.3,.8,.45,1.22,.31,.84,.61,1.64,.93,2.43,.17,.41,.38,.76,.55,1.13,.14,.31,.23,.58,.29,.97,.02,.11,0,.25,.03,.39,.02,.11,.1,.24,.16,.37,.25,.59,.52,1.24,.85,1.76,.14,.21,.32,.38,.45,.58,.26,.38,.52,.87,.66,1.42,.07,.28,.11,.6,.08,.93-.04,.36-.05,.79-.21,1.05,0,.06-.12,.05-.08,.1,.15,.67,.17,1.43,.06,2.06-.11,.64-.36,1.18-.63,1.61-.58,.93-1.31,1.73-2.35,2.14M4.89,10.97c-.11-.41-.37-.83-.58-1.09-.02,0-.02-.01-.03-.02-.11,.13-.31,.2-.39,.34-.23,.4,.08,.92,.08,1.42,0,.24-.04,.47-.11,.63-.04,.08-.12,.14-.13,.24-.02,.17,.06,.45,.1,.64,.09,.45,.18,.82,.27,1.21,.05,.21,.08,.41,.16,.58,.13-.43,.35-.77,.56-1.13-.03-.23,.12-.39,.23-.55,.09-.13,.18-.25,.26-.37-.04-.23,.04-.47,.1-.66-.06-.13-.06-.37-.02-.52-.4-.02-.41-.4-.5-.72m3.83,3.59c-.45,1.33-1.3,2.43-1.88,3.67-.3,.63-.55,1.28-.97,1.82-.2,.26-.41,.52-.6,.79-.19,.27-.4,.53-.72,.68,2.92-.19,5.85,.02,8.29,.47,.41,.08,.83,.16,1.26,.23,.43,.06,.88,.14,1.34,.08-.05-.14-.16-.32-.18-.55-.03-.31,.06-.57,.15-.74,.03-.06,.09-.12,.08-.18-.16-.07-.36-.14-.58-.18-.4-.06-.68-.14-.85-.42-.1-.16-.13-.33-.21-.48-.38-.75-.94-1.39-1.56-1.9-.25-.2-.48-.44-.71-.69-.9-.99-1.67-2.05-2.3-3.25,0,0,0-.02-.02-.02-.13,.27-.25,.56-.53,.68"></path>
</svg>
