<?xml version="1.0" encoding="UTF-8"?>
<svg xmlns="http://www.w3.org/2000/svg" id="Layer_1" data-name="Layer 1" viewBox="0 0 44.26 44.26">
  <defs>
    <style>
      .cls-1 {
        fill: #fff;
      }

      .cls-2 {
        fill: #1c3d72;
      }
    </style>
  </defs>
  <circle class="cls-2" cx="22.13" cy="22.13" r="22.13"></circle>
  <path class="cls-1" d="M33.31,21.93c-.78-.56-1.87-.39-2.43,.39l-2.29,3.17V12.89c0-.85-.69-1.54-1.54-1.54s-1.54,.69-1.54,1.54l.05,7.81-.82-.24V9.72c0-.85-.69-1.54-1.54-1.54s-1.54,.69-1.54,1.54v10.52h-.85l-.02-9.16c0-.85-.69-1.54-1.54-1.54s-1.54,.69-1.54,1.54v9.36l-.77,.26-.03-6.72c0-.85-.69-1.54-1.54-1.54s-1.54,.69-1.54,1.54v15.74c0,3.5,2.8,6.33,6.25,6.33h2.22c4.71-.22,6.22-4.57,6.33-4.73l5.03-6.97c.56-.78,.39-1.87-.39-2.43Z"></path>
</svg>
