<?xml version="1.0" encoding="UTF-8"?>
<svg xmlns="http://www.w3.org/2000/svg" id="Layer_1" data-name="Layer 1" viewBox="0 0 50.76 63.02">
  <defs>
    <style>
      .cls-1, .cls-2 {
        fill: #1c3d72;
      }

      .cls-2 {
        fill-rule: evenodd;
      }
    </style>
  </defs>
  <path class="cls-1" d="M24.08,45.48c.15-.6,.13-1.12-.07-1.6H11.76c-.74-2.1-2.4-3.77-4.5-4.51V11.4c2.1-.74,3.77-2.4,4.5-4.51H31.58c.74,2.1,2.4,3.76,4.49,4.5v14.67c.35-.14,.71-.21,1.08-.21s.73,.07,1.08,.21V9.71l-.85-.19c-1.96-.43-3.51-1.98-3.94-3.95l-.19-.85H10.08l-.19,.85c-.43,1.97-1.98,3.51-3.94,3.95l-.85,.19v31.34l.85,.19c1.96,.43,3.51,1.98,3.94,3.95l.19,.85h13.9c.02-.18,.06-.37,.11-.56Z"></path>
  <path class="cls-1" d="M26.45,49.59c-.73-.21-1.31-.53-1.73-.98H2.17V2.17H41.17V27.69s.04,0,.06,0c.23,0,.48-.03,.74-.1,.38-.1,.74-.14,1.08-.14,.1,0,.2,0,.29,.01V2.17c0-1.2-.97-2.17-2.17-2.17H2.17C.97,0,0,.97,0,2.17V48.61c0,1.2,.97,2.17,2.17,2.17H28c-.31-.6-.81-.98-1.55-1.19Z"></path>
  <path class="cls-1" d="M20.51,36.28H12.08c-.6,0-1.08-.48-1.08-1.08s.48-1.08,1.08-1.08h8.43c.6,0,1.08,.48,1.08,1.08s-.48,1.08-1.08,1.08Z"></path>
  <path class="cls-1" d="M23.46,30.95H12.08c-.6,0-1.08-.48-1.08-1.08s.48-1.08,1.08-1.08h11.38c.6,0,1.08,.48,1.08,1.08s-.48,1.08-1.08,1.08Z"></path>
  <path class="cls-1" d="M31.26,25.62H12.08c-.6,0-1.08-.48-1.08-1.08s.48-1.08,1.08-1.08H31.26c.6,0,1.08,.48,1.08,1.08s-.48,1.08-1.08,1.08Z"></path>
  <path class="cls-1" d="M31.26,20.3H12.08c-.6,0-1.08-.48-1.08-1.08s.48-1.08,1.08-1.08H31.26c.6,0,1.08,.48,1.08,1.08s-.48,1.08-1.08,1.08Z"></path>
  <path class="cls-1" d="M26.49,14.97h-9.65c-.6,0-1.08-.48-1.08-1.08s.48-1.08,1.08-1.08h9.65c.6,0,1.08,.48,1.08,1.08s-.48,1.08-1.08,1.08Z"></path>
  <path class="cls-1" d="M37.16,32.49c-4.51,0-8.18,3.67-8.18,8.18s3.67,8.18,8.18,8.18,8.18-3.67,8.18-8.18-3.67-8.18-8.18-8.18Zm4.79,6.66l-5.63,5.62s-.1,.06-.16,.06-.11-.02-.16-.06l-3.64-3.64c-.09-.09-.09-.23,0-.31l1.36-1.35s.1-.06,.16-.06,.11,.02,.16,.06l2.13,2.13,4.12-4.11s.1-.06,.16-.06,.11,.02,.16,.06l1.36,1.35c.09,.09,.09,.23,0,.31Z"></path>
  <path class="cls-1" d="M50.02,39.15c-.99-1.02-1.31-2.21-.96-3.59,.35-1.37-.16-2.25-1.52-2.64-1.37-.39-2.24-1.26-2.63-2.63-.39-1.37-1.27-1.87-2.64-1.52-1.37,.35-2.57,.03-3.59-.96-1.02-.99-2.03-.99-3.05,0-1.02,.99-2.21,1.31-3.59,.96-1.37-.35-2.25,.16-2.64,1.52-.39,1.37-1.26,2.24-2.63,2.63-1.37,.39-1.87,1.27-1.52,2.64,.35,1.37,.03,2.57-.96,3.59-.99,1.02-.99,2.03,0,3.05,.99,1.02,1.31,2.21,.96,3.59-.35,1.37,.16,2.25,1.52,2.64,1.37,.39,2.24,1.26,2.63,2.63,.39,1.37,1.27,1.87,2.64,1.52,1.37-.35,2.57-.03,3.59,.96,1.02,.99,2.03,.99,3.05,0,1.02-.99,2.21-1.31,3.59-.96,1.37,.35,2.25-.16,2.64-1.52,.39-1.37,1.26-2.24,2.63-2.63,1.37-.39,1.87-1.27,1.52-2.64-.35-1.37-.03-2.57,.96-3.59,.99-1.02,.99-2.03,0-3.05Zm-4.09,5.23c-.48,1.13-1.17,2.15-2.04,3.02-.87,.87-1.89,1.56-3.02,2.04-1.17,.5-2.42,.75-3.7,.75s-2.53-.25-3.7-.75c-1.13-.48-2.15-1.17-3.02-2.04-.87-.87-1.56-1.89-2.04-3.02-.5-1.17-.75-2.42-.75-3.7s.25-2.53,.75-3.7c.48-1.13,1.17-2.15,2.04-3.02,.87-.87,1.89-1.56,3.02-2.04,1.17-.5,2.42-.75,3.7-.75s2.53,.25,3.7,.75c1.13,.48,2.15,1.17,3.02,2.04,.87,.87,1.56,1.89,2.04,3.02,.5,1.17,.75,2.42,.75,3.7s-.25,2.53-.75,3.7Z"></path>
  <path class="cls-2" d="M45.01,53.18c-.53,.46-1.21,.71-1.97,.71-.34,0-.7-.05-1.08-.14-.26-.07-.51-.1-.74-.1-.63,0-1.17,.24-1.7,.75-.56,.55-1.16,.89-1.78,1.02l2.74,7.59,2.98-4.26,5.02,1.38-2.81-7.78c-.18,.33-.41,.6-.66,.83Z"></path>
  <path class="cls-2" d="M34.79,54.4c-.53-.51-1.07-.75-1.7-.75-.23,0-.48,.03-.74,.1-.38,.1-.74,.14-1.08,.14-.76,0-1.44-.24-1.97-.71-.32-.28-.58-.63-.78-1.06l-2.89,8.01,5.02-1.38,2.98,4.26,2.76-7.64c-.55-.16-1.09-.48-1.59-.98Z"></path>
</svg>
