<?xml version="1.0" encoding="UTF-8"?>
<svg xmlns="http://www.w3.org/2000/svg" xmlns:xlink="http://www.w3.org/1999/xlink" id="Layer_1" data-name="Layer 1" viewBox="0 0 1315.98 176.06">
  <defs>
    <style>.cls-1{fill:none;}.cls-2{fill:#fff;}.cls-3{clip-path:url(#clip-path);}.cls-4{fill:#26397a;}.cls-5{fill:#ba3b20;}.cls-6{fill:#1ea538;}</style>
    <clipPath id="clip-path" transform="translate(-57.51 -75.99)">
      <rect class="cls-1" x="75.65" y="106.62" width="1257.46" height="112.8"></rect>
    </clipPath>
  </defs>
  <path class="cls-2" d="M1292.47,76H57.51V252.05h1235.1c3.49,0,80.87-1.86,80.87-82.4V158.39S1373.48,76,1292.47,76Z" transform="translate(-57.51 -75.99)"></path>
  <g class="cls-3">
    <path class="cls-4" d="M94.25,131.66H107v6.44H94.25v42.3c0,5,.73,7.9,6.2,8.27a60.1,60.1,0,0,0,6.56-.37v6.57c-2.31,0-4.5.24-6.81.24-10.21,0-13.73-3.4-13.61-14.1V138.1H75.65v-6.44H86.59V112.82h7.66Z" transform="translate(-57.51 -75.99)"></path>
    <path class="cls-4" d="M118,107.59h7.66v34.89h.24c2.79-7.54,11.18-12.64,20.06-12.64,17.62,0,23,9.23,23,24.18v40.36h-7.66V155.24c0-10.82-3.52-19-15.92-19-12.16,0-19.45,9.23-19.69,21.51v36.59H118Z" transform="translate(-57.51 -75.99)"></path>
    <path class="cls-4" d="M187.84,165.09c.12,11.18,6,24.67,20.67,24.67,11.18,0,17.25-6.57,19.69-16h7.65c-3.28,14.23-11.54,22.49-27.34,22.49-19.94,0-28.33-15.31-28.33-33.18,0-16.53,8.39-33.18,28.33-33.18,20.17,0,28.2,17.62,27.59,35.25Zm40.6-6.45c-.37-11.54-7.54-22.36-19.93-22.36s-19.45,10.94-20.67,22.36Z" transform="translate(-57.51 -75.99)"></path>
    <path class="cls-4" d="M245.7,107.59H263v32.7h.37a22.06,22.06,0,0,1,18.35-10.45c18.35,0,23,10.32,23,25.88v38.66H287.39V158.89c0-10.34-3-15.44-11.06-15.44-9.36,0-13.37,5.22-13.37,18v32.94H245.7Z" transform="translate(-57.51 -75.99)"></path>
    <path class="cls-4" d="M332,167.15c.49,10.94,5.84,15.92,15.44,15.92,6.92,0,12.52-4.25,13.61-8.14h15.19c-4.86,14.83-15.19,21.15-29.41,21.15-19.81,0-32.09-13.61-32.09-33.06,0-18.84,13-33.19,32.09-33.19,21.39,0,31.72,18,30.51,37.32Zm28.08-10.94c-1.58-8.75-5.35-13.37-13.73-13.37-11,0-14.11,8.51-14.35,13.37Z" transform="translate(-57.51 -75.99)"></path>
    <path class="cls-4" d="M386.82,150.86c1-16.16,15.44-21,29.54-21,12.52,0,27.59,2.79,27.59,17.86v32.7c0,5.71.61,11.42,2.19,14H428.63a26,26,0,0,1-1.21-6.08c-5.47,5.72-13.49,7.78-21.15,7.78-11.92,0-21.39-6-21.39-18.84,0-14.22,10.69-17.63,21.39-19.08s20.42-1.22,20.42-8.27c0-7.41-5.11-8.51-11.19-8.51-6.56,0-10.81,2.67-11.42,9.48Zm39.87,12.76c-2.92,2.56-9,2.68-14.35,3.65s-10.21,2.92-10.21,9.24,5,8,10.58,8c13.49,0,14-10.69,14-14.46Z" transform="translate(-57.51 -75.99)"></path>
    <rect class="cls-4" x="400.3" y="31.6" width="17.26" height="86.79"></rect>
    <path class="cls-4" d="M510.56,131.54H523.2v11.54H510.56V174.2c0,5.84,1.46,7.29,7.29,7.29a27,27,0,0,0,5.35-.48V194.5a65.82,65.82,0,0,1-10.09.6c-10.57,0-19.81-2.42-19.81-14.94V143.08H482.85V131.54H493.3V112.69h17.26Z" transform="translate(-57.51 -75.99)"></path>
    <path class="cls-4" d="M531.46,107.59h17.27v32.7h.36a22.06,22.06,0,0,1,18.35-10.45c18.36,0,23,10.32,23,25.88v38.66H573.15V158.89c0-10.34-3-15.44-11-15.44-9.37,0-13.37,5.22-13.37,18v32.94H531.46Z" transform="translate(-57.51 -75.99)"></path>
    <path class="cls-4" d="M653.38,185.75c-6.93,6.8-14.59,10.33-24.44,10.33-15.67,0-28.07-9.6-28.07-26,0-12.16,9.24-20.42,19.45-25.16-4.62-5.71-8.27-10.94-8.27-18.48,0-12,11.06-19.81,22.61-19.81,13.13,0,23.82,7,23.82,20.78,0,10.09-6.68,17-15.43,21.64l11.18,13.74a31.1,31.1,0,0,0,3.16-10.34h15a41.18,41.18,0,0,1-8.39,21.4l17.63,20.54H660.43Zm-24-29.66c-6.08,2.67-12.15,7.29-12.15,14.34,0,6.32,5.83,11.43,12.4,11.43,6.2,0,10.57-3.16,14.58-7.66Zm6.08-37.92a7.65,7.65,0,0,0-7.78,7.65c0,5.48,3.53,9,6.81,13,4.86-3.16,8.87-6.08,8.87-12.4a8.2,8.2,0,0,0-7.9-8.26" transform="translate(-57.51 -75.99)"></path>
    <path class="cls-4" d="M700.18,174c.12,7.53,6.44,10.57,13.25,10.57,5,0,11.3-1.94,11.3-8,0-5.23-7.17-7-19.57-9.72-10-2.19-19.94-5.72-19.94-16.78,0-16,13.86-20.17,27.36-20.17,13.73,0,26.37,4.61,27.71,20H723.88c-.49-6.68-5.59-8.51-11.79-8.51-3.89,0-9.61.73-9.61,5.83,0,6.2,9.73,7.06,19.57,9.37,10.1,2.31,19.94,5.95,19.94,17.62,0,16.53-14.34,21.88-28.69,21.88-14.58,0-28.81-5.47-29.53-22.12Z" transform="translate(-57.51 -75.99)"></path>
    <path class="cls-4" d="M751.35,150.86c1-16.16,15.44-21,29.53-21,12.53,0,27.6,2.79,27.6,17.86v32.7c0,5.71.61,11.42,2.19,14H793.16A26,26,0,0,1,792,188.3c-5.47,5.72-13.49,7.78-21.15,7.78-11.91,0-21.4-6-21.4-18.84,0-14.22,10.7-17.63,21.4-19.08s20.42-1.22,20.42-8.27c0-7.41-5.11-8.51-11.18-8.51-6.57,0-10.82,2.67-11.43,9.48Zm39.87,12.76c-2.92,2.56-9,2.68-14.35,3.65s-10.2,2.92-10.2,9.24,5,8,10.57,8c13.49,0,14-10.69,14-14.46Z" transform="translate(-57.51 -75.99)"></path>
    <path class="cls-4" d="M825.62,143.08H815.28V131.54h10.34v-4.87c0-11.06,6.93-19.08,21-19.08,3,0,6.2.37,9.11.49V121a54.08,54.08,0,0,0-6.32-.37c-4.62,0-6.56,2-6.56,7.18v3.77h11.91v11.54H842.88v51.3H825.62Z" transform="translate(-57.51 -75.99)"></path>
    <path class="cls-4" d="M876.55,167.15c.48,10.94,5.83,15.92,15.44,15.92,6.92,0,12.51-4.25,13.61-8.14h15.19c-4.86,14.83-15.19,21.15-29.41,21.15-19.82,0-32.1-13.61-32.1-33.06,0-18.84,13-33.19,32.1-33.19,21.39,0,31.72,18,30.51,37.32Zm28.08-10.94c-1.59-8.75-5.36-13.37-13.74-13.37-10.94,0-14.1,8.51-14.34,13.37Z" transform="translate(-57.51 -75.99)"></path>
    <path class="cls-4" d="M954,131.54h12.64v11.54H954V174.2c0,5.84,1.46,7.29,7.29,7.29a26.82,26.82,0,0,0,5.35-.48V194.5a65.6,65.6,0,0,1-10.08.6c-10.57,0-19.82-2.42-19.82-14.94V143.08H926.26V131.54h10.45V112.69H954Z" transform="translate(-57.51 -75.99)"></path>
    <path class="cls-4" d="M1005.87,202.28c-3.77,10.09-9.72,14.22-21.63,14.22a101.42,101.42,0,0,1-10.58-.61l0-14.38c3.28.25,6.67.89,10.07.77,6-.61,7.9-6.81,6-11.79l-22.13-59h18.48l14.22,43h.25l13.73-43h17.87Z" transform="translate(-57.51 -75.99)"></path>
    <path class="cls-4" d="M1091.69,189.27c-.12,18.72-7.29,30.15-27.83,30.15-12.52,0-24.92-5.59-26-19h7.66c1.7,9.24,9.85,12.52,18.36,12.52,14.1,0,20.17-8.39,20.17-23.71v-8.5h-.24a21.75,21.75,0,0,1-19.93,12.88c-20.06,0-28.32-14.34-28.32-32.21,0-17.26,10.2-31.61,28.32-31.61a22.08,22.08,0,0,1,19.93,12.65h.24V131.66h7.66Zm-7.66-27c0-12.28-5.71-26-20.17-26s-20.67,13-20.67,26c0,12.64,6.56,24.92,20.67,24.92,13.25,0,20.17-12.16,20.17-24.92" transform="translate(-57.51 -75.99)"></path>
    <path class="cls-4" d="M1106.28,131.66h7v14.71h.24c3.89-10.1,12.4-16.05,23.7-15.56v7.66c-13.85-.74-23.33,9.48-23.33,22.48v33.43h-7.66Z" transform="translate(-57.51 -75.99)"></path>
    <path class="cls-4" d="M1198.55,163c0,18-10.45,33.18-29.66,33.18S1139.24,181,1139.24,163s10.45-33.19,29.65-33.19,29.66,15.2,29.66,33.19m-51.65,0c0,13.37,7.29,26.74,22,26.74s22-13.37,22-26.74-7.29-26.75-22-26.75-22,13.38-22,26.75" transform="translate(-57.51 -75.99)"></path>
    <path class="cls-4" d="M1260.79,194.38h-7v-11.3h-.24c-4,8.38-12.28,13.12-21.64,13.12-15.8,0-22-9.24-22-23.82V131.66h7.66V172.5c.36,11.3,4.61,17.26,16.77,17.26,13.13,0,18.84-12.4,18.84-25.16V131.66h7.66Z" transform="translate(-57.51 -75.99)"></path>
    <path class="cls-4" d="M1275.25,131.66h7v11.91h.25c3.52-8.51,12.27-13.74,22.36-13.74,19.09,0,28.2,15.44,28.2,33.19s-9.11,33.18-28.2,33.18c-9.36,0-18.47-4.74-21.75-13.73h-.25V217.6h-7.66Zm29.66,4.62c-16.89,0-22,12.52-22,26.74,0,13,5.72,26.74,22,26.74,14.59,0,20.54-13.74,20.54-26.74s-6-26.74-20.54-26.74" transform="translate(-57.51 -75.99)"></path>
    <rect class="cls-5" x="188.21" y="125.36" width="344.98" height="14.68"></rect>
    <rect class="cls-6" x="543.34" y="125.51" width="365.77" height="14.29"></rect>
  </g>
</svg>
