<?xml version="1.0" encoding="UTF-8"?>
<svg xmlns="http://www.w3.org/2000/svg" id="Layer_1" data-name="Layer 1" viewBox="0 0 270 120">
  <defs>
    <style>.cls-1{fill:#fff;}.cls-2{fill:#006ab4;}.cls-3{fill:#1d1d1b;}</style>
  </defs>
  <rect class="cls-1" x="115.48" y="13.28" width="127.03" height="49.17"></rect>
  <path class="cls-2" d="M241,17.76l-2.77,8.52a21.75,21.75,0,0,0-9.48-2c-4.56,0-8.25.67-8.25,4.11,0,6.06,16.69,3.8,16.69,16.79,0,11.82-11,14.89-21,14.89a48.14,48.14,0,0,1-13.3-2.22l2.71-8.7c2.28,1.48,6.84,2.46,10.59,2.46,3.58,0,9.18-.68,9.18-5.09,0-6.86-16.69-4.29-16.69-16.35,0-11,9.73-14.35,19.15-14.35,5.3,0,10.29.56,13.18,1.9M207.9,16.6,199,59.37H187.46l3.81-18.32H177.66l-3.82,18.32H162.33l8.93-42.77h11.51L179.39,33H193l3.39-16.36ZM167,16.6,157.9,59.37H143.61l-9-29.6h-.12l-6,29.6H117.68l9.18-42.77H141.2L150,46.26h.13l6-29.66Zm78.91-5.13H114V64.61h132Z"></path>
  <path class="cls-3" d="M27.45,96.42v10h-5.3V80.12h7.21a21.57,21.57,0,0,1,4,.34,8.5,8.5,0,0,1,3.25,1.35A7.36,7.36,0,0,1,39,84.54a7.82,7.82,0,0,1,.84,3.57A8.7,8.7,0,0,1,39,91.92a7.12,7.12,0,0,1-2.16,2.62A9.11,9.11,0,0,1,33.66,96a15.48,15.48,0,0,1-3.92.47C29.22,96.49,28.45,96.47,27.45,96.42Zm0-4.06c.93,0,1.77,0,2.53-.11a7.66,7.66,0,0,0,2.07-.5,3.45,3.45,0,0,0,1.51-1.25,4,4,0,0,0,.58-2.27,3.59,3.59,0,0,0-1-2.78,4.33,4.33,0,0,0-2.29-1.08,29,29,0,0,0-3.44-.24Z"></path>
  <path class="cls-3" d="M48.19,106.37h-5V92.75c-.07-3.25-.12-5.2-.16-5.87h4.58l.11,4.92a8.71,8.71,0,0,1,2-3.69,4.65,4.65,0,0,1,3.49-1.38,6.45,6.45,0,0,1,1.48.19v4.73a6.93,6.93,0,0,0-1.77-.27,4.09,4.09,0,0,0-2.84.94,4.76,4.76,0,0,0-1.45,2.41,12.14,12.14,0,0,0-.4,3.22v8.42Z"></path>
  <path class="cls-3" d="M76.7,96.8a11.39,11.39,0,0,1-.73,4.12,9.12,9.12,0,0,1-2.07,3.2,9.38,9.38,0,0,1-3.2,2,11.23,11.23,0,0,1-4.15.73,10.53,10.53,0,0,1-5.31-1.3,9,9,0,0,1-3.53-3.69,11.55,11.55,0,0,1-1.24-5.37,10.82,10.82,0,0,1,1.27-5.28,9,9,0,0,1,3.57-3.59,10.68,10.68,0,0,1,5.27-1.28,11,11,0,0,1,4.19.77A9.15,9.15,0,0,1,74,89.33a9.68,9.68,0,0,1,2,3.32A11.86,11.86,0,0,1,76.7,96.8Zm-5.23-.1A9.62,9.62,0,0,0,71,93.61a5.54,5.54,0,0,0-1.63-2.5,4.28,4.28,0,0,0-5.43,0,5.72,5.72,0,0,0-1.66,2.45,8.72,8.72,0,0,0-.54,3,9.81,9.81,0,0,0,.51,3.15,5.56,5.56,0,0,0,1.63,2.49,4.16,4.16,0,0,0,2.82,1,3.86,3.86,0,0,0,2.13-.58,4.67,4.67,0,0,0,1.5-1.5,7.14,7.14,0,0,0,.88-2A9,9,0,0,0,71.47,96.7Z"></path>
  <path class="cls-3" d="M85.63,106.37h-5V90.75h-3.9V87h3.9a36.68,36.68,0,0,1,.22-3.78,6.55,6.55,0,0,1,.9-2.62,5.18,5.18,0,0,1,2.47-2,8.78,8.78,0,0,1,3.39-.64,10.29,10.29,0,0,1,2.71.36L90,82.33a4.57,4.57,0,0,0-1.49-.25,2.37,2.37,0,0,0-1.91.74,3.49,3.49,0,0,0-.79,1.73A16.69,16.69,0,0,0,85.63,87h4.42v3.75H85.63Z"></path>
  <path class="cls-3" d="M108.83,101.18l.08,4.37a16.76,16.76,0,0,1-6.69,1.34,12.32,12.32,0,0,1-4.28-.68,8.49,8.49,0,0,1-3.2-2,8.65,8.65,0,0,1-2-3.23,13.66,13.66,0,0,1,0-8.42,9.56,9.56,0,0,1,1.86-3.25,8.26,8.26,0,0,1,3-2.14,10,10,0,0,1,4-.77,9.1,9.1,0,0,1,3.87.79,7.3,7.3,0,0,1,2.72,2.17,9.55,9.55,0,0,1,1.56,3.2,14.33,14.33,0,0,1,.52,4,4.47,4.47,0,0,1,0,.58c0,.13,0,.29,0,.48s0,.42-.05.67H97a4.92,4.92,0,0,0,1.79,3.6,6.16,6.16,0,0,0,4,1.28A12.27,12.27,0,0,0,108.83,101.18Zm-3.42-6.42a7.37,7.37,0,0,0-.47-2.4,4,4,0,0,0-1.33-1.77,3.59,3.59,0,0,0-2.22-.67,4.07,4.07,0,0,0-2.34.66,4.52,4.52,0,0,0-1.5,1.76,7,7,0,0,0-.64,2.42Z"></path>
  <path class="cls-3" d="M113.21,105.85l.23-4.26a11,11,0,0,0,5,1.38,5.34,5.34,0,0,0,2.36-.54,1.76,1.76,0,0,0,1.12-1.67c0-.65-.54-1.21-1.6-1.67l-3.2-1.36a8.24,8.24,0,0,1-2.78-1.88,4.66,4.66,0,0,1-1.17-3.38,4.84,4.84,0,0,1,1.22-3.4,7,7,0,0,1,3.11-1.93,12.72,12.72,0,0,1,3.9-.6,18,18,0,0,1,4.8.75l-.36,3.78a13.84,13.84,0,0,0-4.13-.75,6.45,6.45,0,0,0-2.43.45,1.55,1.55,0,0,0-1.11,1.53c0,.63.51,1.15,1.53,1.57s2.09.83,3.21,1.24A7.68,7.68,0,0,1,125.75,97a4.86,4.86,0,0,1,1.2,3.54,5.3,5.3,0,0,1-1.16,3.49,6.77,6.77,0,0,1-3,2.06,11.74,11.74,0,0,1-3.9.65A22.92,22.92,0,0,1,113.21,105.85Z"></path>
  <path class="cls-3" d="M130,105.85l.23-4.26a11,11,0,0,0,5,1.38,5.34,5.34,0,0,0,2.36-.54,1.75,1.75,0,0,0,1.11-1.67c0-.65-.53-1.21-1.59-1.67l-3.2-1.36a8.24,8.24,0,0,1-2.78-1.88,4.66,4.66,0,0,1-1.17-3.38,4.79,4.79,0,0,1,1.22-3.4,7.06,7.06,0,0,1,3.1-1.93,12.83,12.83,0,0,1,3.91-.6,18,18,0,0,1,4.8.75l-.36,3.78a13.89,13.89,0,0,0-4.14-.75,6.39,6.39,0,0,0-2.42.45,1.55,1.55,0,0,0-1.11,1.53c0,.63.51,1.15,1.52,1.57s2.09.83,3.21,1.24A7.64,7.64,0,0,1,142.53,97a4.86,4.86,0,0,1,1.2,3.54,5.3,5.3,0,0,1-1.16,3.49,6.77,6.77,0,0,1-3,2.06,11.74,11.74,0,0,1-3.9.65A22.92,22.92,0,0,1,130,105.85Z"></path>
  <path class="cls-3" d="M152.74,83.35h-5.19V78.58h5.19Zm-.08,23h-5V86.88h5Z"></path>
  <path class="cls-3" d="M176.71,96.8a11.39,11.39,0,0,1-.73,4.12,9.12,9.12,0,0,1-2.07,3.2,9.38,9.38,0,0,1-3.2,2,11.23,11.23,0,0,1-4.15.73,10.55,10.55,0,0,1-5.31-1.3,8.94,8.94,0,0,1-3.52-3.69,11.43,11.43,0,0,1-1.24-5.37,10.82,10.82,0,0,1,1.26-5.28,9,9,0,0,1,3.57-3.59,10.69,10.69,0,0,1,5.28-1.28,11,11,0,0,1,4.18.77,9.06,9.06,0,0,1,3.2,2.18,9.86,9.86,0,0,1,2,3.32A12.09,12.09,0,0,1,176.71,96.8Zm-5.23-.1a9.62,9.62,0,0,0-.51-3.09,5.61,5.61,0,0,0-1.62-2.5,4,4,0,0,0-2.75-1,4,4,0,0,0-2.68,1,5.74,5.74,0,0,0-1.67,2.45,8.72,8.72,0,0,0-.54,3,9.81,9.81,0,0,0,.51,3.15,5.56,5.56,0,0,0,1.63,2.49,4.16,4.16,0,0,0,2.82,1,3.92,3.92,0,0,0,2.14-.58,4.88,4.88,0,0,0,1.5-1.5,7.41,7.41,0,0,0,.87-2A9,9,0,0,0,171.48,96.7Z"></path>
  <path class="cls-3" d="M185.33,86.88l.12,3.12A7.52,7.52,0,0,1,192,86.57c2.62,0,4.38.78,5.29,2.32a12.9,12.9,0,0,1,1.37,6.51v11h-5v-9.8a11.29,11.29,0,0,0-.66-4.21,2.77,2.77,0,0,0-2.88-1.61,3.42,3.42,0,0,0-3.32,1.89,9.81,9.81,0,0,0-1,4.49v9.24h-5.08V94c0-2.76-.06-5.12-.19-7.1Z"></path>
  <path class="cls-3" d="M219.7,106.37h-4.5l-.07-2.92a6.16,6.16,0,0,1-2.53,2.4,7.68,7.68,0,0,1-3.53.83,8.52,8.52,0,0,1-3.47-.67,5.36,5.36,0,0,1-2.41-2.05,6,6,0,0,1-.88-3.33c0-2.44.95-4.1,2.86-5a16.27,16.27,0,0,1,7-1.35h.77l.76,0,1.22.07a4.41,4.41,0,0,0-1.06-3.23,4.45,4.45,0,0,0-3.27-1.06,9.46,9.46,0,0,0-6,2.14l-.15-4.39a17.31,17.31,0,0,1,6.79-1.32,13.76,13.76,0,0,1,2.71.27,8.8,8.8,0,0,1,2.49.89,5.84,5.84,0,0,1,1.9,1.66,5.63,5.63,0,0,1,1,2.38,18.24,18.24,0,0,1,.24,3.18c0,1.27,0,2.54,0,3.82s0,2.45,0,3.51S219.62,104.68,219.7,106.37ZM215,97.51a3.85,3.85,0,0,0-.59,0h-.62a23.43,23.43,0,0,0-3,.19,5.27,5.27,0,0,0-2.4.92,2.5,2.5,0,0,0-1,2.16,2.19,2.19,0,0,0,.92,1.84,3.44,3.44,0,0,0,2.12.68,3.92,3.92,0,0,0,3.46-1.69A7,7,0,0,0,215,97.51Z"></path>
  <path class="cls-3" d="M229.46,106.37h-5V78h5Z"></path>
  <path class="cls-3" d="M233.55,105.85l.23-4.26a11,11,0,0,0,5,1.38,5.38,5.38,0,0,0,2.37-.54,1.75,1.75,0,0,0,1.11-1.67c0-.65-.53-1.21-1.59-1.67l-3.2-1.36a8.24,8.24,0,0,1-2.78-1.88,4.66,4.66,0,0,1-1.17-3.38,4.79,4.79,0,0,1,1.22-3.4,7.06,7.06,0,0,1,3.1-1.93,12.81,12.81,0,0,1,3.9-.6,18,18,0,0,1,4.81.75l-.37,3.78a13.78,13.78,0,0,0-4.13-.75,6.39,6.39,0,0,0-2.42.45,1.56,1.56,0,0,0-1.12,1.53c0,.63.51,1.15,1.53,1.57s2.09.83,3.21,1.24A7.8,7.8,0,0,1,246.1,97a4.86,4.86,0,0,1,1.2,3.54,5.26,5.26,0,0,1-1.17,3.49,6.69,6.69,0,0,1-3,2.06,11.79,11.79,0,0,1-3.91.65A23.05,23.05,0,0,1,233.55,105.85Z"></path>
</svg>
