<?xml version="1.0" encoding="UTF-8"?>
<svg xmlns="http://www.w3.org/2000/svg" id="Layer_1" data-name="Layer 1" viewBox="0 0 50.14 62.25">
  <defs>
    <style>
      .cls-1 {
        fill: #fff;
      }

      .cls-2 {
        fill: #1c3d72;
      }
    </style>
  </defs>
  <g>
    <path class="cls-1" d="M36.91,6.62s-.04,.05-.06,.08c-.07,.06-.15,.09-.23,.09-3.51-.11-6.97,1.82-9.02,5.02l-5.21,8.14c-.1,.16-.3,.21-.44,.12l-.9-.57c-.14-.09-.17-.29-.07-.45l5.21-8.14c2.43-3.79,6.51-6.07,10.66-5.94,.17,0,.29,.16,.27,.34l-.15,1.16c0,.05-.03,.11-.06,.15Z"></path>
    <path class="cls-1" d="M23.37,7.46L2.87,39.49C-1.66,46.57-.22,55.61,6.08,59.64l1.04,.67c6.3,4.03,15.12,1.55,19.65-5.53L47.27,22.76c4.53-7.08,3.09-16.13-3.21-20.16l-1.04-.67c-6.3-4.03-15.12-1.56-19.65,5.53Zm5.86,35.7l-5.19,8.16c-2.42,3.8-6.49,6.09-10.64,5.98-.17,0-.29-.16-.27-.34l.14-1.16c0-.05,.03-.11,.06-.15,.02-.03,.04-.05,.06-.08,.07-.06,.15-.09,.23-.09,3.51,.1,6.96-1.84,9-5.06l5.19-8.16c.1-.16,.3-.21,.44-.12l.9,.57c.14,.09,.17,.29,.07,.45ZM42.56,4.96c5.15,3.29,6.32,10.68,2.62,16.47l-9.82,15.34L15.64,24.14l9.82-15.34c3.7-5.78,10.9-7.81,16.05-4.51l1.04,.67Z"></path>
  </g>
  <g>
    <path class="cls-2" d="M12.91,55.48s.04-.05,.07-.08c.07-.06,.15-.09,.23-.09,3.51,.16,6.99-1.72,9.08-4.9l5.32-8.08c.1-.16,.3-.21,.44-.12l.89,.59c.14,.09,.17,.29,.07,.45l-5.32,8.08c-2.48,3.76-6.59,5.98-10.74,5.8-.17,0-.29-.16-.26-.34l.16-1.16c0-.05,.03-.11,.06-.15Z"></path>
    <path class="cls-2" d="M26.46,54.81l20.92-31.75c4.63-7.02,3.31-16.08-2.94-20.2l-1.03-.68C37.15-1.94,28.3,.43,23.68,7.45L2.76,39.2c-4.63,7.02-3.31,16.08,2.94,20.2l1.03,.68c6.25,4.12,15.1,1.75,19.72-5.27Zm-5.4-35.77l5.29-8.09c2.47-3.77,6.57-6.01,10.72-5.84,.17,0,.29,.16,.27,.34l-.16,1.16c0,.05-.03,.11-.06,.15-.02,.03-.04,.05-.07,.08-.07,.06-.15,.09-.23,.09-3.51-.14-6.99,1.75-9.07,4.94l-5.29,8.09c-.1,.16-.3,.21-.44,.12l-.89-.58c-.14-.09-.17-.29-.07-.45ZM7.24,57.07c-5.1-3.36-6.18-10.76-2.4-16.5l10.02-15.21,19.55,12.88-10.02,15.21c-3.78,5.73-11,7.66-16.11,4.3l-1.03-.68Z"></path>
  </g>
</svg>
