<?xml version="1.0" encoding="UTF-8"?>
<svg xmlns="http://www.w3.org/2000/svg" id="Layer_1" data-name="Layer 1" viewBox="0 0 29.76 44.44">
  <defs>
    <style>
      .cls-1 {
        fill: #1c3d72;
      }
    </style>
  </defs>
  <path class="cls-1" d="M27.29,17.04c.06,.03,.13,.06,.19,.08-.06,1.85-.14,3.85-.26,4.94-.21,1.92-1.06,4.52-1.39,5.46l-.09-.03v.02l.84,.24c.34-.98,1.2-3.6,1.42-5.6,.12-1.12,.21-3.1,.26-4.95,.05,0,.09,0,.14-.01,.2-.03,.4-.09,.61-.2-.16-.18-.33-.3-.51-.4-.07-.04-.15-.07-.22-.1,.05-1.89,.07-3.49,.08-3.62,0-.22-.17-.4-.39-.4h0c-.22,0-.39,.17-.4,.39,0,.03-.02,1.6-.07,3.49-.03,0-.06,0-.09,0-.2,.03-.4,.09-.62,.25,.15,.23,.32,.35,.5,.45Z"></path>
  <path class="cls-1" d="M19.79,4.81c.12,.13,.25,.25,.35,.39,.1,.14,.21,.29,.29,.42,.17,.27,.34,.55,.5,.84,.16,.28,.31,.58,.45,.88,.07,.15,.13,.3,.2,.46,.03,.08,.06,.16,.09,.25l1.33,.26c-.11-.44-.1-.9,.04-1.32,.02-.06,.04-.12,.07-.18-.39-.72-2.04-3.52-4.27-3.69-.64-.05-1.24,.07-1.78,.32,.35,.08,.69,.19,1.03,.32,.62,.24,1.21,.58,1.72,1.06Z"></path>
  <path class="cls-1" d="M12.12,6.42c.26,.03,.5,.07,.72,.1h.03c.31,.05,.57,.12,.79,.21,.53-2.38,2.55-4.62,5.24-4.41,2.36,.19,4.06,2.65,4.71,3.76,.15-.14,.33-.25,.52-.34,.31-.13,.64-.18,.97-.14-.84-2.02-3.28-4.93-6.39-5.17-.55-.04-1.11,0-1.67,.13-3.33,.77-4.53,4.27-4.91,5.85Z"></path>
  <path class="cls-1" d="M4.59,14.77c.24,.02,.5-.02,.73-.13,.12-.04,.23-.12,.35-.19,.06-.04,.13-.09,.19-.14-.08-.18-.16-.36-.23-.54-.41-1.05-.69-2.14-.85-3.26-.11,.02-.23,.04-.35,.05-.45,1.06-.82,2.16-1.07,3.29-.02,.09-.04,.18-.05,.27,.15,.16,.36,.32,.57,.44,.22,.12,.46,.2,.71,.21Z"></path>
  <path class="cls-1" d="M3.35,18.25c.04,.14,.1,.27,.15,.41l.08,.2c.03,.07,.07,.13,.1,.2,.25,.53,.6,1,1.02,1.39,.42,.38,.91,.69,1.46,.86,.55,.17,1.12,.24,1.7,.23,1.16-.06,2.32-.39,3.4-.89,.26-.13,.55-.25,.79-.39,.25-.14,.48-.31,.71-.49,.38-.31,.72-.67,1.02-1.07-.04,0-.07,0-.11,0-.32,.02-.63,0-.93-.02-.61-.05-1.21-.17-1.8-.32-.59-.15-1.16-.32-1.74-.53-.59-.23-1.13-.57-1.58-1-.67-.62-1.17-1.37-1.57-2.16-.04,.04-.08,.07-.12,.11-.13,.09-.25,.2-.4,.26-.28,.16-.61,.24-.94,.25-.33,0-.66-.07-.96-.19-.15-.07-.3-.14-.44-.23-.03,.25-.06,.5-.08,.75-.03,.3-.02,.59-.02,.89,.02,.29,.03,.59,.08,.88,.03,.29,.11,.57,.18,.86Z"></path>
  <path class="cls-1" d="M17.34,14.46c-.07-.75-.19-1.5-.37-2.22-.07-.02-.14-.05-.2-.07-.14,1.14-.37,2.24-.71,3.33-.17,.54-.37,1.07-.6,1.58,.12,.08,.26,.14,.4,.19,.21,.07,.42,.11,.62,.08,.2-.02,.39-.1,.55-.23,.09-.05,.15-.15,.23-.22,.05-.06,.09-.13,.14-.19,.06-.75,.04-1.5-.04-2.26Z"></path>
  <path class="cls-1" d="M17.49,11.73s.04,0,.06-.01c.04,0,.08-.02,.11-.03,.08-.02,.11-.06,.15-.09,.05-.07,.08-.17,.04-.34-.04-.16-.14-.34-.28-.5-.26-.33-.64-.6-1.04-.87-.66-.44-1.37-.83-2.09-1.19-.05,.16-.1,.32-.16,.47-.09,.24-.24,.41-.44,.53,.58,.42,1.17,.82,1.77,1.2,.41,.25,.83,.49,1.26,.67,.21,.09,.43,.16,.57,.17,.01,0,.02,0,.04,0Z"></path>
  <path class="cls-1" d="M15.68,17.72c-.15-.06-.29-.13-.43-.22-.24,.47-.5,.93-.81,1.36-.37,.51-.79,.99-1.29,1.39-.25,.2-.51,.39-.79,.54-.28,.17-.56,.28-.84,.42-.59,.27-1.21,.5-1.84,.66,.49,.03,.99,.04,1.48,.02,.78-.02,1.55-.11,2.3-.28,.74-.18,1.47-.45,2.08-.89,.61-.42,1.06-1.03,1.35-1.73,.19-.45,.31-.94,.4-1.43-.22,.16-.49,.26-.76,.28-.29,.02-.58-.03-.83-.14Z"></path>
  <path class="cls-1" d="M24.44,6.47c-.31,.13-.55,.4-.66,.76-.12,.37-.09,.79,.07,1.17,.17,.39,.45,.69,.81,.86,.34,.16,.69,.17,1,.04,.31-.13,.55-.4,.66-.76,.12-.37,.09-.79-.07-1.17-.26-.61-.82-.99-1.36-.99-.15,0-.3,.03-.45,.09Z"></path>
  <path class="cls-1" d="M11.33,6.33c.36-1.57,1.54-5.16,4.83-6.33-.24,.02-.47,.04-.71,.07-.54,.07-1.07,.2-1.58,.36-.51,.17-.99,.41-1.44,.69-.87,.59-1.47,1.51-1.88,2.49-.35,.84-.57,1.74-.7,2.65,.48-.01,.99,.02,1.48,.06Z"></path>
  <path class="cls-1" d="M3.87,9.95s.1,.02,.17,.02c.09,0,.19,0,.3-.02,.42-.06,.87-.17,1.3-.3,.65-.19,1.29-.41,1.93-.65-.24-.31-.31-.72-.22-1.26-.63,.16-1.27,.37-1.88,.61-.43,.17-.83,.34-1.18,.57-.17,.11-.32,.24-.42,.38-.1,.14-.13,.25-.12,.37,.01,.06,.03,.13,.07,.2,.01,.03,.03,.06,.05,.08Z"></path>
  <path class="cls-1" d="M10.03,8.96c.41,.02,.82,.06,1.21,.1,1.01,.1,2.16,.21,2.31-.18,.16-.41,.32-.88,.16-1.14-.02-.03-.04-.06-.07-.09h0c-.19-.2-.58-.29-.88-.33h-.03c-.56-.08-1.7-.25-2.71-.25-.94,0-1.75,.14-1.86,.63-.09,.4-.07,.67,.04,.83,.23,.31,1.01,.39,1.82,.44Z"></path>
  <path class="cls-1" d="M3.88,9.97h0s0,.01,0,0Z"></path>
  <path class="cls-1" d="M27.26,35.95c.05,.19,.1,.37,.18,.54,.1,.23,.24,.45,.4,.58,.16,.13,.29,.15,.46,.08,.17-.07,.34-.26,.47-.48,.26-.45,.4-1,.47-1.56,.04-.34,.04-.69,.02-1.04l-1.99,1.88Z"></path>
  <path class="cls-1" d="M19.57,43.22c.05,.19,.1,.37,.18,.54,.1,.23,.24,.44,.4,.57,.16,.12,.29,.15,.46,.07,.17-.07,.34-.26,.47-.48,.26-.45,.4-1,.47-1.55,.04-.34,.04-.68,.02-1.03l-1.99,1.88Z"></path>
  <path class="cls-1" d="M23.77,27.71c-.21-.06-.32-.29-.26-.49h0c.41-1.4,.74-2.83,1-4.27,.12-.72,.22-1.44,.28-2.16,.04-.36,.05-.72,.06-1.08l.05-1.11,.35-8.41h-.03c-.3,0-.6-.07-.89-.2-.19-.09-.37-.21-.53-.34-.12,3.13-.24,6.25-.39,9.38-.04,.86-.09,1.72-.15,2.59-.06,.88-.21,1.76-.42,2.61-.4,1.55-.96,3.03-1.66,4.48l4.56,1.38c.21,.06,.33,.28,.27,.49-.02,.06-.05,.12-.09,.16h0l-9.55,10.01,1.56,.51,11.49-11.78-5.65-1.74Z"></path>
  <polygon class="cls-1" points="16.04 43.2 17.73 43.65 17.75 41.83 16.04 41.41 16.04 43.2"></polygon>
  <polygon class="cls-1" points="0 38.71 1.72 39.26 1.77 37.63 0 37.21 0 38.71"></polygon>
  <polygon class="cls-1" points="18.28 41.75 18.3 43.32 29.76 32.5 29.76 30.22 18.28 41.75"></polygon>
  <path class="cls-1" d="M20.26,28.77v-.02c.78-1.49,1.43-3.09,1.86-4.72,.22-.82,.36-1.64,.43-2.48,.07-.85,.12-1.71,.17-2.57,.2-3.34,.36-6.69,.52-10.03,0-.02-.02-.03-.03-.05l-1.48-.08c-.1,2.85-.22,5.69-.39,8.54-.05,.75-.09,1.49-.16,2.24-.07,.75-.12,1.49-.28,2.27-.33,1.51-.89,2.92-1.49,4.29h0c-.16,.37-.33,.74-.5,1.09-.17,.36-.35,.72-.54,1.08h0c-.09,.17-.28,.25-.45,.2l-4.6-1.33,.09,2.34,9.9,3.05,2-2.03-4.79-1.22h0c-.2-.05-.33-.26-.28-.47,0-.03,.02-.05,.03-.08Z"></path>
  <path class="cls-1" d="M4.07,38.43c.05,.19,.1,.38,.18,.55,.1,.24,.24,.46,.39,.59,.16,.14,.29,.16,.45,.11,.16-.07,.33-.24,.46-.46,.27-.44,.4-1,.47-1.55,.04-.34,.04-.68,.02-1.02l-1.97,1.78Z"></path>
  <path class="cls-1" d="M13.1,26.39h0l4.7,1.27c.13-.25,.26-.51,.38-.77,.1-.22,.2-.44,.31-.66l-6-1.78L.33,36.54l1.6,.55,10.84-10.61c.09-.09,.22-.12,.33-.09Z"></path>
  <polygon class="cls-1" points="12.7 27.51 2.23 37.57 2.28 38.98 12.62 29.63 12.7 27.51"></polygon>
  <path class="cls-1" d="M11.39,31.82c.1,.38,.25,.75,.48,.99,.13,.14,.27,.22,.41,.21,.13,0,.3-.1,.44-.26,.28-.32,.46-.8,.57-1.27,.08-.37,.13-.76,.13-1.15l-.3-.08-1.73,1.56Z"></path>
</svg>
