<?xml version="1.0" encoding="UTF-8"?>
<svg xmlns="http://www.w3.org/2000/svg" id="Layer_1" data-name="Layer 1" viewBox="0 0 44.63 41.47">
  <defs>
    <style>
      .cls-1 {
        fill: #1c3d72;
      }
    </style>
  </defs>
  <path class="cls-1" d="M43.63,36.9c-.18-.05-1.49,.01-1.83,0-.34-.01-1.68-.15-1.79-.15-.13,0,.03-1.06-.12-1.17-.15-.11-.72-.4-.98-.59-.26-.19-2.1-2.13-2.69-2.79-.59-.66-2.98-3.49-3.43-4.15-.45-.66-2.16-3.45-2.27-3.57-.11-.12-.52-.49-.53-.7-.01-.21-.34-1.39-.55-1.63-.2-.25-.94-.81-1.12-.81s-.57,.1-.71,.08c-.14-.01-.12-.16-.38-.54-.26-.37-2.34-1.94-3.25-2.36-.92-.43-2.21,.34-2.52,.58-.3,.23-1.09,1.02-1.5,1.03-.41,.01-.75-.41-.9-.6-.15-.19-.75-1.19-.86-1.57-.11-.37-.93-3.05-1.11-3.56-.18-.51-1.07-1.41-1.23-1.62-.16-.21,.1-.16,.52,.12,.42,.29,1.38,.73,1.8,.7,.42-.03,.44-.43,.52-.66,.08-.23,.56-.16,.66-.16s.1-.15,.16-.26c.07-.11,.19,0,.27-.03,.08-.03,.2-.3,.22-.4,.01-.1,.29-.36,.38-.4,.1-.04,.64,.36,.83,.26,.19-.1,.1-2.09,.11-2.2,.01-.11,.33-.21,.52-.32,.19-.11,.81-1.02,.89-1.13,.08-.11,.37-.29,.55-.54,.18-.25,.44-1.02,.44-1.95s-.68-2.66-2.16-4.12C20.07,.27,18.64,.09,17.54,0c-1.09-.08-2.57,.88-2.84,1.15-.27,.27-.77,.3-.89,.22-.12-.08-1.02-.04-1.22,.04-.19,.08-.48,.81-.56,.88-.08,.07-.55-.05-1.79,.44-1.24,.49-1.9,2.39-1.93,3.74-.03,1.35-1.19,3.13-1.26,3.35-.07,.22-.52,1.02-.34,.96,.18-.06,.51-.06,.38,0-.12,.05-2.12,2.46-2.45,2.79-.33,.33-1.91,5.05-1.94,5.3-.03,.25-.85,3.9-1,4.34-.15,.44-1.05,3.86-1.33,4.49-.27,.63-1,5.42,.71,8.06,1.71,2.64,3.81,2.88,6.17,2.88s4.06-.99,4.47-1.22c.41-.23,3.47-2.13,4.27-2.68,.79-.55,4.21-3.17,4.46-3.38,.25-.21,2.35-1.46,2.61-1.54,.26-.08,.6,.25,.98,.69,.38,.44,2.13,2.16,3.01,2.79,.88,.63,3.36,3.1,3.39,3.28,.03,.18,.4,1.62,.51,1.85,.11,.23,.41,1.22,.63,1.3,.22,.08,.77-.1,.83-.03,.07,.07,.27,.89,.41,1.22,.14,.33,.44,.52,1.3,.54,.86,.01,2.27-.25,2.41-.34,.14-.1,.12-.26,.12-.37s.08-.16,.18-.27c.09-.1,.93-.22,1.15-.18,.22,.04,1.61,.25,2.62,.16,1.01-.08,2.35-.74,2.94-1.06,.59-.32,1.04-.82,1.08-1.48,.04-.66-.82-.97-1-1.03M11.59,8.45c-.11-.02-.19-.52-.15-1.05,.04-.53,0-1.86,.11-1.97,.11-.12,.69-.92,.77-.85,.08,.07,.19,.04,.36,.25,.17,.21,.35,.02,.4-.04,.05-.06,.23-.32,.34-.21,.06,.06,.08,1.73,0,2.02-.08,.29-.3,.98-.61,1.23-.32,.25-1.11,.65-1.21,.63m1.59,17.26c-.46,.3-.83,.48-1,.46-.17-.02-.36-.08-.32-.54,.04-.47,.12-1.24,.29-1.86,.17-.62,.26-1.13,.41-1.4,.15-.27,.81-1.47,.87-1.51,.05-.03,.12,0,.12,0,.06,.09,1.07,.99,1.14,1.04,.07,.05,1.43,1,1.44,1.73,.01,.73-2.47,1.78-2.93,2.08"></path>
</svg>
