<?xml version="1.0" encoding="UTF-8"?>
<svg xmlns="http://www.w3.org/2000/svg" id="Layer_1" data-name="Layer 1" viewBox="0 0 316.21 70.88">
  <defs>
    <style>.cls-1{fill:#342d8c;}.cls-2{fill:#fff;}</style>
  </defs>
  <path class="cls-1" d="M217.24,405.46a23.41,23.41,0,0,1-23.42,23.42H146.36V381.42A23.42,23.42,0,0,1,169.78,358h47.46Z" transform="translate(-146.36 -358)"></path>
  <path class="cls-2" d="M152.21,401.76c-.05,2.46,1.72,3.21,3.9,3.21,1.25,0,3.16-.69,3.16-2.43,0-1.35-1.35-1.89-2.46-2.16l-2.66-.65c-1.4-.35-2.69-1-2.69-2.88,0-1.17.75-3.36,4.11-3.36,2.36,0,4.44,1.27,4.42,3.71h-1.14c-.06-1.82-1.57-2.74-3.26-2.74s-3,.6-3,2.38c0,1.12.83,1.59,1.8,1.82l2.91.72c1.69.45,3.1,1.19,3.1,3.15,0,.82-.33,3.41-4.57,3.41-2.83,0-4.9-1.27-4.77-4.18Zm9.64-8h1.05v7.5l4.79-4.19h1.4l-3.68,3.2,3.94,5.44H168l-3.41-4.7-1.71,1.42v3.28h-1.05Zm8.22,0h1.05v1.69h-1.05Zm0,3.31h1.05v8.64h-1.05Zm2.92-3.31h1.06v11.95H173Zm2.93,0H177v11.95h-1.06Zm8.08,5.84a2,2,0,0,0-2.25-1.89c-.94,0-2.05.37-2.05,1.49,0,.94,1.08,1.27,1.79,1.45l1.41.32a2.54,2.54,0,0,1,2.46,2.4c0,1.87-1.86,2.59-3.46,2.59-2,0-3.38-.94-3.55-3.05h1.05a2.28,2.28,0,0,0,2.55,2.16c1,0,2.36-.43,2.36-1.64,0-1-.94-1.34-1.89-1.57l-1.36-.3c-1.37-.37-2.41-.84-2.41-2.31,0-1.76,1.72-2.43,3.25-2.43a2.84,2.84,0,0,1,3.16,2.78Zm10.53-1.64h-1.71v7.75h-1v-7.75H190.3v-.89h1.47v-.78c0-1.49.4-2.53,2.09-2.53a5.69,5.69,0,0,1,.89.07v.9a4.38,4.38,0,0,0-.77-.08c-1.17,0-1.14.73-1.16,1.67v.75h1.71Zm8.57,3.43c0,2.48-1.44,4.57-4.09,4.57s-4.08-2.09-4.08-4.57,1.44-4.57,4.08-4.57S203.1,398.89,203.1,401.37Zm-7.11,0c0,1.84,1,3.68,3,3.68s3-1.84,3-3.68-1-3.68-3-3.68S196,399.53,196,401.37Zm8.51-4.32h1v2h0a3.17,3.17,0,0,1,3.26-2.14V398a3,3,0,0,0-3.21,3.1v4.6H204.5ZM151.75,411h2.19v5h5.7v-5h2.19v12.52h-2.19v-5.65h-5.7v5.65h-2.19Zm13.81,8.5a2.42,2.42,0,0,0,2.44,2.69,2.1,2.1,0,0,0,2.21-1.51h1.89a4,4,0,0,1-4.1,3.09c-2.84,0-4.43-2-4.43-4.77,0-2.58,1.68-4.79,4.38-4.79,2.86,0,4.61,2.58,4.28,5.29Zm4.67-1.31a2.34,2.34,0,1,0-4.67,0Zm10.94,3.31c0,.49.1.69.47.69a2.43,2.43,0,0,0,.49,0v1.39a5.29,5.29,0,0,1-1.26.23c-.81,0-1.39-.29-1.54-1.11a4.67,4.67,0,0,1-3.14,1.11c-1.63,0-3.11-.88-3.11-2.65,0-2.26,1.81-2.63,3.49-2.82,1.44-.27,2.72-.11,2.72-1.28s-1.07-1.23-1.87-1.23c-1.13,0-1.92.45-2,1.44h-2c.14-2.34,2.12-3,4.12-3,1.77,0,3.63.72,3.63,2.63Zm-2-2.52a7.32,7.32,0,0,1-2.46.54c-.86.14-1.63.46-1.63,1.51,0,.89,1.14,1.16,1.84,1.16.88,0,2.25-.46,2.25-1.72Zm4-8h2v12.52h-2Zm3.09,3.46h1.5v-2.72h2v2.72h1.81v1.49h-1.81v4.83c0,.83.07,1.25,1,1.25a3.41,3.41,0,0,0,.84-.07v1.54c-.44,0-.86.11-1.3.11-2.09,0-2.47-.81-2.51-2.32v-5.34h-1.5Zm6.57-3.46h2v4.65h0a3.17,3.17,0,0,1,2.72-1.44,2.87,2.87,0,0,1,3.21,3.09v6.22h-2v-5.7c0-1.42-.6-2-1.77-2a2.21,2.21,0,0,0-2.19,2.38v5.35h-2Z" transform="translate(-146.36 -358)"></path>
  <path class="cls-1" d="M263.89,396.14h-9.1v-.08c4.55-2.08,7-7.19,7-12.39a15.32,15.32,0,0,0-15.64-15.33,15.72,15.72,0,1,0,.05,31.44h17.67v-3.64ZM246,395.88c-6.66,0-11.3-5.41-11.3-12.12a11.33,11.33,0,1,1,22.65.09c0,6.71-4.63,12-11.35,12Zm38.11-16.62h-3.9v10.56c0,4.77-2.46,6.84-5.71,6.84-2.47,0-4.68-1.43-4.68-5.28V379.26H266v13.2c0,5.46,3.47,7.84,7.45,7.84,3.16,0,5.76-1.52,6.76-3.68h.08v3.16h3.9V379.26Zm5.72,4.93c1.43-1.08,2.86-2.34,5.84-2.34,3.34,0,4.9,2.21,4.9,4.34v.86h-2.86c-6.24,0-11.3,1.82-11.3,7.1,0,4,3.29,6.15,7.1,6.15,3.12,0,5.45-1,7.19-3.64h.08c0,1,.05,2.08.13,3.12h3.47a31.57,31.57,0,0,1-.17-3.72V385.58c0-3.55-2.52-6.84-8.58-6.84a12.07,12.07,0,0,0-8.14,3l2.34,2.42Zm10.74,5.72v1.3c0,2.77-1.52,6-5.85,6-2.68,0-4.42-1-4.42-3.33,0-3.29,4.51-3.94,8.19-3.94Zm7,9.87h3.9V367h-3.9v32.74Zm7.8,0h3.89V379.26h-3.89v20.52Zm-.91-27.89a2.86,2.86,0,1,0,2.86-2.85,2.89,2.89,0,0,0-2.86,2.85Zm20.26,7.37h-5.58V373.5h-3.9v5.76h-4.5v3.37h4.5v10.7c0,3.29.09,7,6.1,7a8.83,8.83,0,0,0,3.51-.69v-3.55a5.59,5.59,0,0,1-2.77.6c-2.94,0-2.94-2.42-2.94-4.72v-9.31h5.58v-3.37Zm9.79,20.65-1.26,3.25c-.78,2-1.51,3.38-4,3.38a6.36,6.36,0,0,1-2.34-.48l-.47,3.55a9.42,9.42,0,0,0,3.46.57c4.29,0,5.63-2.43,7-6l9.75-24.94h-4.2l-5.81,16h-.08l-6.11-16H336l8.53,20.65Zm19.23-.13h4.15v-25.2H368l10.35,25.2h2.77l10.35-25.2h.09v25.2h4.15V369.12h-6.19l-9.65,23.21h-.18L370,369.12h-6.19v30.66Zm38.36-15.59c1.43-1.08,2.86-2.34,5.85-2.34,3.33,0,4.89,2.21,4.89,4.34v.86H410c-6.24,0-11.31,1.82-11.31,7.1,0,4,3.29,6.15,7.11,6.15,3.11,0,5.45-1,7.18-3.64h.09c0,1,0,2.08.13,3.12h3.46a31.57,31.57,0,0,1-.17-3.72V385.58c0-3.55-2.51-6.84-8.57-6.84a12.11,12.11,0,0,0-8.15,3l2.34,2.42Zm10.74,5.72v1.3c0,2.77-1.51,6-5.84,6-2.69,0-4.42-1-4.42-3.33,0-3.29,4.5-3.94,8.18-3.94Zm30.71,9.87h3.89V389.13L457,399.78h5.54l-10.39-11.17,9.57-9.31h-5.41l-8.84,8.88V367H443.6v32.74Z" transform="translate(-146.36 -358)"></path>
  <path class="cls-1" d="M424.54,378.57s-4.4,0-4.4,4.4v13s0,4.4,4.4,4.4H436s4.4,0,4.4-4.4V383s0-4.4-4.4-4.4Z" transform="translate(-146.36 -358)"></path>
  <path class="cls-2" d="M439.83,379.12a70.07,70.07,0,0,0-10.49,13.48l-.74-1.7c-1.48-3.39-2.87-5.09-4.1-5.09-1.49,0-3.07.95-4.8,2.8a5.62,5.62,0,0,1,2.77,2.15,25.65,25.65,0,0,1,2.72,5l.64,1.6a31.49,31.49,0,0,1,1.39,3.74,25.5,25.5,0,0,1,3-2.29L432,397.6a81.14,81.14,0,0,1,9.69-15.24,66.75,66.75,0,0,1,11.47-12.13l-.84-1.2a58.58,58.58,0,0,0-12.51,10.09Z" transform="translate(-146.36 -358)"></path>
</svg>
